<?xml version="1.0" standalone="no"?>
<!DOCTYPE svg PUBLIC "-//W3C//DTD SVG 20010904//EN"
 "http://www.w3.org/TR/2001/REC-SVG-20010904/DTD/svg10.dtd">
<svg version="1.0" xmlns="http://www.w3.org/2000/svg"
 width="280.000000pt" height="280.000000pt" viewBox="0 0 280.000000 280.000000"
 preserveAspectRatio="xMidYMid meet">

<g transform="translate(0.000000,280.000000) scale(0.100000,-0.100000)"
fill="#000000" stroke="none">
<path d="M1235 2789 c-77 -10 -214 -41 -257 -58 l-28 -11 0 -547 0 -548 236
238 236 237 54 0 c56 0 67 -9 37 -32 -10 -7 -214 -213 -453 -457 l-435 -443
-6 378 c-3 209 -7 520 -8 692 l-1 313 -46 -33 c-78 -55 -192 -167 -259 -253
-201 -257 -298 -537 -299 -860 -1 -168 17 -290 65 -440 31 -93 114 -271 149
-315 l20 -25 158 160 c87 88 414 420 726 738 l569 577 225 0 226 0 -85 -87
c-92 -96 -1214 -1247 -1449 -1486 -80 -82 -146 -152 -148 -156 -7 -20 200
-167 313 -224 89 -44 238 -95 345 -118 139 -30 399 -32 535 -5 381 76 700 287
908 601 104 157 169 312 208 495 33 151 33 409 0 560 -60 278 -183 503 -385
706 -205 206 -456 340 -731 389 -111 20 -326 27 -420 14z m583 -1860 l331
-336 -112 -6 c-62 -4 -163 -7 -226 -7 l-115 0 -192 198 -192 197 -199 -197
c-209 -209 -211 -210 -281 -192 -20 6 13 42 293 323 173 174 322 327 331 339
9 13 19 22 23 20 5 -2 157 -154 339 -339z"/>
</g>
</svg>
